# xmcd
#
# Track frame offsets:
#	150
#	11470
#	30440
#	40832
#	50915
#	66050
#	80517
#	95190
#	108635
#	119225
#	129000
#	143462
#	163045
#	182200
#	195362
#	206282
#	223082
#	234107
#	246327
#	262870
#	279685
#	302777
#
# Disc length: 4208 seconds
#
# Revision: 1
# Processed by: cddbd v1.5.2PL0 Copyright (c) Steve Scherf et al.
# Submitted via: EZCDAudioConverter 8.5.0.1
#
DISCID=37106e16
DTITLE=Townes Van Zandt - High, Low And In Between/The Late Great Townes Van Z
DTITLE=andt
DYEAR=1996
DGENRE=Country
TTITLE0=Two Hands
TTITLE1=You Are Not Needed Now
TTITLE2=Greensboro Woman
TTITLE3=Highway Kind
TTITLE4=Standin'
TTITLE5=No Deal
TTITLE6=To Live Is To Fly
TTITLE7=When He Offers His Hand
TTITLE8=Mr. Gold And Mr. Mud
TTITLE9=Blue Ridge Mountains
TTITLE10=High, Low And In Between
TTITLE11=No Lonesome Tune
TTITLE12=Sad Cinderella
TTITLE13=German Mustard
TTITLE14=Don't Let The Sunshine Fool Ya'
TTITLE15=Honky Tonkin'
TTITLE16=Snow Don't Fall
TTITLE17=Fraulein
TTITLE18=Poncho and Lefty
TTITLE19=If I Needed You
TTITLE20=Silver Ships Of Andilar
TTITLE21=Heavenly Houseboat Blues
EXTD=
EXTT0=
EXTT1=
EXTT2=
EXTT3=
EXTT4=
EXTT5=
EXTT6=
EXTT7=
EXTT8=
EXTT9=
EXTT10=
EXTT11=
EXTT12=
EXTT13=
EXTT14=
EXTT15=
EXTT16=
EXTT17=
EXTT18=
EXTT19=
EXTT20=
EXTT21=
PLAYORDER=
